# xmcd
#
# Track frame offsets:
#	150
#	15036
#	29857
#	41284
#	57630
#	72877
#	87732
#	103437
#	114184
#	125218
#	137862
#	149111
#	161918
#	174446
#	186684
#	199384
#	210996
#	225733
#	238354
#	250277
#	259629
#	272167
#	283428
#	295855
#	310499
#	321901
#	333331
#	345688
#
# Disc length: 4780 seconds
# Revision: 0
# Processed by: cddbd v1.5.2PL0 Copyright (c) Steve Scherf et al.
# Submitted via: dBpowerAMP V12.0
#
DISCID=d512aa1c
DTITLE=Various Artist - The Odyssey - CD8 - The Weekenders Era
DYEAR=2014
DGENRE=R&B
TTITLE0=Nolan Porter - If I Could Only Be Sure
TTITLE1=Bobby Womack and The Brotherhood - Home Is Where The Heart Is
TTITLE2=Bobby SHeen - Something New To Do
TTITLE3=Mandrill - Too Late
TTITLE4=Brown Sugar - The Game Is Over (What's The Matter With You)
TTITLE5=Jackie Wilson - Because Of You
TTITLE6=The Drifters - Pour Your Little Heart Out
TTITLE7=Liz Verdi - Think It Over (And Be Sure)
TTITLE8=Kenny Carter - What's That On Your Finger
TTITLE9=Barbara McNair - Baby-A-Go-Go
TTITLE10=Ben E King - I Can't Break The News To Myself
TTITLE11=Barbaara Lewis - The Stars
TTITLE12=Crist Clark - Something's Wrong
TTITLE13=Joanie Sommers - Don't Pity Me
TTITLE14=Gladys Knight and The Pips - Here Are The Pieces Of My Broken Heart
TTITLE15=Tony Galla - In Love
TTITLE16=Jnr Walker and The All-Stars - Tune Up
TTITLE17=Timebox - Beggin'
TTITLE18=Patrice Holloway - Stolen Hours
TTITLE19=The Dynells - Call On Me
TTITLE20=The Masqueraders - How
TTITLE21=Dottie and Millie - Talkin' 'Bout My Baby
TTITLE22=The Magicians - (Just A Little) Faith And Understanding
TTITLE23=Honey and The Bees - Dynamite Exploded
TTITLE24=Cody Black - I'm Slowly Moulding
TTITLE25=Chuck Jackson - What's With This Loneliness
TTITLE26=The Precisions - If This Is Love
TTITLE27=Timi Yuro - It'll Never Be Over For Me
EXTD=
EXTT0=
EXTT1=
EXTT2=
EXTT3=
EXTT4=
EXTT5=
EXTT6=
EXTT7=
EXTT8=
EXTT9=
EXTT10=
EXTT11=
EXTT12=
EXTT13=
EXTT14=
EXTT15=
EXTT16=
EXTT17=
EXTT18=
EXTT19=
EXTT20=
EXTT21=
EXTT22=
EXTT23=
EXTT24=
EXTT25=
EXTT26=
EXTT27=
PLAYORDER=
